HIERARCHY
ROOT Hips
{
	OFFSET	0.00	0.00	0.00
	CHANNELS 6 Xposition Yposition Zposition Zrotation Xrotation Yrotation
	JOINT Chest
	{
		OFFSET	0.00	6.27	0.00
		CHANNELS 3 Zrotation Xrotation Yrotation
		JOINT Neck
		{
			OFFSET	0.00	14.29	0.00
			CHANNELS 3 Zrotation Xrotation Yrotation
			JOINT Head
			{
				OFFSET	0.00	2.63	0.00
				CHANNELS 3 Zrotation Xrotation Yrotation
				End Site
				{
					OFFSET	0.00	4.49	0.00
				}
			}
		}
		JOINT LeftCollar
		{
			OFFSET	1.12	11.36	1.87
			CHANNELS 3 Zrotation Xrotation Yrotation
			JOINT LeftUpArm
			{
				OFFSET	4.57	2.02	-1.82
				CHANNELS 3 Zrotation Xrotation Yrotation
				JOINT LeftLowArm
				{
					OFFSET	0.22	-10.35	-0.06
					CHANNELS 3 Zrotation Xrotation Yrotation
					JOINT LeftHand
					{
						OFFSET	0.09	-10.35	2.18
						CHANNELS 3 Zrotation Xrotation Yrotation
						End Site
						{
							OFFSET	0.131837	-6.692379	1.711456
						}
					}
				}
			}
		}
		JOINT RightCollar
		{
			OFFSET	-1.12	11.36	1.87
			CHANNELS 3 Zrotation Xrotation Yrotation
			JOINT RightUpArm
			{
				OFFSET	-4.70	2.03	-1.82
				CHANNELS 3 Zrotation Xrotation Yrotation
				JOINT RightLowArm
				{
					OFFSET	-0.26	-10.43	-0.06
					CHANNELS 3 Zrotation Xrotation Yrotation
					JOINT RightHand
					{
						OFFSET	0.00	-10.26	2.18
						CHANNELS 3 Zrotation Xrotation Yrotation
						End Site
						{
							OFFSET	-0.14	-6.67	1.71
						}
					}
				}
			}
		}
	}
	JOINT LeftUpLeg
	{
		OFFSET	3.91	0.00	0.00
		CHANNELS 3 Zrotation Xrotation Yrotation
		JOINT LeftLowLeg
		{
			OFFSET	-0.44	-17.57	1.70
			CHANNELS 3 Zrotation Xrotation Yrotation
			JOINT LeftFoot
			{
				OFFSET	-0.04	-17.20	-1.48
				CHANNELS 3 Zrotation Xrotation Yrotation
				End Site
				{
					OFFSET	0.00	-3.93	5.23
				}
			}
		}
	}
	JOINT RightUpLeg
	{
		OFFSET	-3.91	0.00	0.00
		CHANNELS 3 Zrotation Xrotation Yrotation
		JOINT RightLowLeg
		{
			OFFSET	0.43	-17.62	1.70
			CHANNELS 3 Zrotation Xrotation Yrotation
			JOINT RightFoot
			{
				OFFSET	0.00	-17.14	-1.48
				CHANNELS 3 Zrotation Xrotation Yrotation
				End Site
				{
					OFFSET	0.00	-4.04	5.23
				}
			}
		}
	}
}
MOTION
Frames: 18
Frame Time: 0.04166667
-14.60	4.50	3.85	12.00	-8.88	77.89	2.35	2.41	-3.14	10.62	18.52	-0.20	-13.48	15.46	-0.22	0.61	1.90	-12.39	17.70	-0.62	-51.02	-5.22	1.46	4.47	-6.28	2.54	-1.33	15.65	-7.37	0.19	-21.11	12.26	16.98	-7.82	6.44	1.51	-0.47	2.40	-0.10	1.75	26.21	7.96	-1.30	8.72	1.68	0.09	-16.31	-0.12	11.52	8.51	-28.43	3.06	-8.95	18.75	-7.36	3.21	6.22
-14.11	4.46	4.04	12.35	-9.06	77.22	2.18	1.84	-3.27	10.62	19.09	0.28	-13.39	15.91	-0.10	0.62	1.55	-12.58	17.73	0.61	-51.17	-5.34	1.63	4.61	-7.21	2.56	-1.53	15.72	-7.73	0.16	-21.36	13.76	16.36	-7.89	6.26	1.31	3.28	2.42	0.70	1.70	27.03	8.39	-1.22	9.89	2.09	-0.84	-16.04	-0.29	11.90	9.69	-29.27	3.20	-8.90	20.48	-9.03	3.80	6.59
-13.26	4.44	4.24	13.04	-9.30	76.53	2.11	2.05	-3.19	10.44	19.23	0.68	-13.29	16.03	-0.07	0.20	2.12	-12.16	18.28	0.60	-51.16	-5.08	1.66	4.47	-7.63	2.57	-1.62	16.07	-7.55	-0.06	-21.75	14.25	14.81	-8.01	6.16	1.29	3.48	2.42	0.75	1.56	28.12	8.82	-1.10	11.08	2.62	-1.68	-15.43	-0.42	11.96	11.14	-28.79	3.19	-8.90	20.36	-9.29	5.72	6.95
-12.59	4.42	4.44	13.20	-9.60	76.11	2.40	1.54	-3.22	10.17	19.54	0.86	-13.29	15.99	-0.08	-0.20	1.73	-12.30	18.30	1.91	-52.90	-4.56	1.24	4.31	-8.80	2.61	-1.86	15.93	-7.77	-0.01	-21.67	15.49	12.56	-8.18	5.93	1.29	3.26	2.42	0.70	2.63	24.49	4.66	-0.41	19.22	4.41	-9.96	-11.97	-1.24	11.41	10.96	-28.42	3.27	-6.14	19.98	-9.31	5.78	6.96
-11.94	4.45	4.65	13.35	-9.75	76.10	2.41	1.06	-3.28	10.15	19.79	0.54	-13.26	15.97	-0.09	-0.42	1.39	-12.46	18.22	2.92	-53.63	-4.25	0.94	4.16	-8.96	2.61	-1.90	15.96	-8.11	0.06	-21.48	16.73	8.13	-8.42	5.59	1.35	2.13	2.41	0.46	2.79	24.77	4.02	-0.28	20.40	4.87	-10.39	-10.76	-1.07	10.06	9.51	-28.48	3.51	-0.31	19.78	-10.08	3.58	6.74
-11.29	4.46	4.88	13.17	-9.98	76.38	2.77	0.13	-3.53	9.91	20.19	0.32	-13.12	16.04	-0.07	-0.68	0.77	-12.65	17.89	4.15	-53.75	-4.07	0.66	4.06	-8.64	2.60	-1.83	15.87	-8.24	0.26	-21.19	17.90	6.51	-8.83	5.71	1.39	1.68	2.40	0.36	3.34	24.36	3.11	-0.18	22.17	5.19	-10.75	-9.47	-0.86	10.08	9.71	-28.63	3.59	1.27	19.94	-10.55	2.35	6.60
-10.65	4.47	5.12	12.98	-10.24	76.66	3.18	-0.70	-3.49	9.72	20.45	0.05	-12.98	16.07	-0.06	-0.91	0.42	-12.81	17.63	4.99	-54.26	-3.69	0.29	3.89	-8.80	2.61	-1.86	15.81	-8.29	0.34	-20.76	18.78	4.84	-9.35	5.91	1.40	1.68	2.40	0.36	3.97	23.68	2.12	-0.15	24.34	5.32	-11.18	-8.00	-0.60	10.62	10.68	-28.82	3.60	1.20	20.05	-10.91	1.32	6.46
-10.03	4.47	5.35	12.90	-10.44	77.02	3.56	-1.20	-3.35	9.52	20.47	-0.23	-12.89	16.02	-0.08	-1.25	0.59	-12.72	17.67	5.01	-52.75	-3.50	0.07	3.71	-7.94	2.58	-1.68	15.90	-8.19	0.27	-20.46	19.13	3.49	-9.83	6.05	1.40	1.74	2.40	0.37	4.62	22.92	1.08	-0.20	26.60	5.39	-11.91	-6.26	-0.27	11.08	11.57	-29.77	3.65	1.42	20.65	-11.47	0.31	6.33
-9.44	4.43	5.58	12.54	-10.69	77.39	4.28	-2.08	-3.40	8.98	20.68	-0.19	-12.84	15.99	-0.08	-1.71	0.22	-12.74	17.45	5.78	-52.34	-3.15	-0.30	3.54	-8.09	2.58	-1.71	15.76	-8.19	0.45	-20.25	19.57	6.35	-9.92	6.85	1.24	5.33	2.45	1.14	5.41	21.66	-0.56	-0.31	29.13	5.51	-13.61	-4.33	0.18	11.66	12.17	-30.61	3.71	1.60	21.34	-12.42	-0.66	6.23
-9.05	4.37	5.80	11.95	-11.11	77.49	5.41	-3.28	-3.43	8.17	21.09	0.15	-12.82	15.91	-0.10	-2.11	-0.86	-12.99	16.78	7.49	-52.26	-2.74	-0.72	3.34	-8.13	2.58	-1.72	15.31	-8.40	0.83	-20.24	20.38	5.74	-9.90	6.48	1.25	5.10	2.45	1.09	6.39	19.99	-2.15	-0.51	32.02	5.49	-16.10	-2.42	0.80	12.46	12.47	-31.51	3.77	1.93	22.06	-13.76	-1.56	6.15
-8.53	4.28	6.00	11.41	-11.54	77.48	6.39	-4.15	-3.31	7.61	21.32	0.44	-12.89	15.79	-0.13	-2.36	-1.63	-13.21	16.20	8.72	-50.92	-2.60	-0.93	3.18	-7.31	2.56	-1.55	15.07	-8.70	1.04	-20.43	20.69	4.47	-9.89	6.09	1.32	3.40	2.42	0.73	7.65	17.63	-2.87	-0.97	35.92	4.23	-17.92	-0.44	1.55	13.00	12.46	-32.30	3.85	2.93	22.62	-14.57	-2.73	5.91
-8.08	4.18	6.19	11.01	-11.92	77.58	7.11	-4.43	-3.23	7.35	21.23	0.61	-13.08	15.64	-0.17	-2.60	-1.67	-13.30	16.01	8.90	-49.85	-2.52	-0.92	3.07	-6.79	2.55	-1.44	15.28	-8.78	1.03	-20.86	19.96	2.59	-10.11	5.82	1.47	0.48	2.40	0.10	8.90	14.32	-3.21	-1.44	41.00	2.27	-19.03	2.25	2.58	13.44	12.54	-33.32	3.96	3.83	23.47	-15.14	-3.85	5.64
-7.70	4.10	6.35	10.66	-12.16	77.86	7.55	-4.41	-3.27	7.27	20.98	0.65	-13.20	15.46	-0.21	-2.83	-1.30	-13.31	16.14	8.35	-49.22	-2.60	-0.73	3.07	-6.54	2.54	-1.39	15.73	-8.62	0.96	-21.15	18.25	3.35	-10.88	6.92	1.41	0.73	2.40	0.16	10.29	10.04	-2.65	-1.68	46.78	-0.77	-19.51	6.01	3.96	13.66	12.44	-34.56	4.09	4.86	24.46	-15.52	-4.79	5.40
-7.38	4.05	6.48	10.13	-12.32	78.19	8.08	-4.61	-3.38	6.98	20.93	0.67	-13.16	15.21	-0.27	-2.99	-1.57	-13.41	15.98	8.37	-51.46	-2.44	-0.74	3.16	-8.40	2.59	-1.78	15.79	-8.59	1.18	-21.10	16.22	2.54	-11.50	8.91	1.22	2.76	2.41	0.59	11.18	4.80	-2.95	-1.89	52.69	-3.50	-19.08	10.75	5.44	13.94	12.20	-35.63	4.17	5.48	25.11	-15.77	-5.46	5.21
-6.94	4.03	6.59	9.66	-12.20	78.62	8.34	-4.59	-3.54	6.61	20.76	0.63	-13.04	14.97	-0.33	-3.26	-1.53	-13.30	16.08	7.85	-51.77	-2.46	-0.44	3.16	-8.58	2.60	-1.82	15.88	-8.31	1.43	-21.49	14.04	2.60	-11.14	10.34	1.14	3.47	2.42	0.74	11.35	-0.52	-4.10	-2.09	57.60	-5.80	-19.18	16.11	7.21	14.23	12.20	-36.45	4.18	5.21	25.38	-15.93	-5.78	5.12
-6.90	4.02	6.67	8.89	-12.07	78.94	8.95	-4.95	-3.57	5.89	20.77	0.66	-13.03	14.72	-0.39	-3.51	-1.77	-13.33	15.93	7.88	-52.30	-2.25	-0.26	3.03	-8.94	2.61	-1.89	15.60	-7.93	1.79	-21.88	12.52	4.93	-10.52	10.93	1.20	2.02	2.40	0.43	11.18	-6.08	-5.85	-2.33	61.90	-7.90	-21.27	20.12	9.49	14.50	11.93	-36.90	4.19	4.86	25.60	-16.02	-6.06	5.04
-6.53	4.03	6.70	8.04	-11.58	79.37	9.32	-5.23	-3.45	5.15	20.61	0.66	-13.27	14.36	-0.48	-4.13	-1.47	-13.07	16.23	7.21	-52.39	-2.07	-0.10	2.88	-8.85	2.61	-1.87	15.47	-7.15	1.90	-22.55	10.72	9.38	-9.72	10.99	1.42	-1.11	2.40	-0.24	10.29	-11.69	-7.63	-2.20	66.03	-8.19	-21.43	21.27	9.96	14.26	11.27	-37.17	4.19	4.87	25.44	-15.99	-6.38	4.95
-6.37	4.09	6.70	7.77	-10.89	79.68	9.62	-4.59	-3.24	4.07	20.17	0.86	-13.54	14.06	-0.57	-5.06	-0.53	-12.29	16.83	5.68	-50.34	-2.06	0.24	2.65	-7.03	2.55	-1.49	15.50	-5.67	1.87	-23.62	7.67	11.88	-8.98	10.84	1.61	4.52	2.44	0.97	8.71	-16.31	-9.91	-2.18	68.97	-8.84	-21.57	21.50	10.11	13.86	11.37	-36.93	4.14	4.23	24.89	-15.72	-6.44	4.93
